<?xml version="1.0" encoding="utf-8" ?>
<svg baseProfile="tiny" height="320" version="1.2" width="280" xmlns="http://www.w3.org/2000/svg" xmlns:ev="http://www.w3.org/2001/xml-events" xmlns:xlink="http://www.w3.org/1999/xlink"><defs /><rect fill="white" height="40" stroke="black" width="40" x="0" y="0" /><rect fill="white" height="40" stroke="black" width="40" x="40" y="0" /><rect fill="white" height="40" stroke="black" width="40" x="80" y="0" /><rect fill="white" height="40" stroke="black" width="40" x="120" y="0" /><rect fill="white" height="40" stroke="black" width="40" x="160" y="0" /><rect fill="white" height="40" stroke="black" width="40" x="200" y="0" /><rect fill="white" height="40" stroke="black" width="40" x="240" y="0" /><rect fill="white" height="40" stroke="black" width="40" x="0" y="0" /><text fill="black" font-family="Dom Casual D" font-size="10" text-anchor="middle" x="20.0" y="25.0">RD</text><rect fill="white" height="40" stroke="black" width="40" x="0" y="40" /><text fill="black" font-family="Dom Casual D" font-size="10" text-anchor="middle" x="20.0" y="65.0">RR</text><rect fill="white" height="40" stroke="black" width="40" x="0" y="80" /><text fill="black" font-family="Dom Casual D" font-size="10" text-anchor="middle" x="20.0" y="105.0">AR</text><rect fill="white" height="40" stroke="black" width="40" x="80" y="0" /><text fill="black" font-family="Dom Casual D" font-size="10" text-anchor="middle" x="100.0" y="25.0">AD</text><rect fill="white" height="40" stroke="black" width="40" x="0" y="240" /><text fill="black" font-family="Dom Casual D" font-size="10" text-anchor="middle" x="20.0" y="265.0">CD</text><rect fill="white" height="40" stroke="black" width="40" x="0" y="280" /><text fill="black" font-family="Dom Casual D" font-size="10" text-anchor="middle" x="20.0" y="305.0">CR</text><rect fill="white" height="40" stroke="black" width="40" x="0" y="120" /><text fill="black" font-family="Dom Casual D" font-size="10" text-anchor="middle" x="20.0" y="145.0">TD</text><rect fill="white" height="40" stroke="black" width="40" x="0" y="160" /><text fill="black" font-family="Dom Casual D" font-size="10" text-anchor="middle" x="20.0" y="185.0">TR</text><rect fill="white" height="40" stroke="black" width="80" x="160" y="280" /><text fill="black" font-family="Dom Casual D" font-size="10" text-anchor="middle" x="200.0" y="305.0">C</text><rect fill="white" height="40" stroke="black" width="40" x="120" y="160" /><text fill="black" font-family="Dom Casual D" font-size="10" text-anchor="middle" x="140.0" y="185.0">UR</text><rect fill="white" height="40" stroke="black" width="40" x="160" y="200" /><text fill="black" font-family="Dom Casual D" font-size="10" text-anchor="middle" x="180.0" y="225.0">DH</text><rect fill="white" height="40" stroke="black" width="40" x="160" y="240" /><text fill="black" font-family="Dom Casual D" font-size="10" text-anchor="middle" x="180.0" y="265.0">DV</text><rect fill="white" height="40" stroke="black" width="40" x="0" y="40" /><rect fill="lightsteelblue" height="40" stroke="black" width="40" x="40" y="40" /><text fill="black" font-family="Dom Casual D" font-size="30" text-anchor="middle" x="60.0" y="70.0">H</text><rect fill="white" height="40" stroke="black" width="40" x="80" y="40" /><text fill="black" font-family="Dom Casual D" font-size="30" text-anchor="middle" x="100.0" y="70.0">E</text><rect fill="white" height="40" stroke="black" width="40" x="120" y="40" /><text fill="black" font-family="Dom Casual D" font-size="30" text-anchor="middle" x="140.0" y="70.0">J</text><rect fill="white" height="40" stroke="black" width="40" x="160" y="40" /><text fill="black" font-family="Dom Casual D" font-size="30" text-anchor="middle" x="180.0" y="70.0">S</text><rect fill="white" height="40" stroke="black" width="40" x="200" y="40" /><text fill="black" font-family="Dom Casual D" font-size="30" text-anchor="middle" x="220.0" y="70.0">A</text><rect fill="white" height="40" stroke="black" width="40" x="240" y="40" /><text fill="black" font-family="Dom Casual D" font-size="30" text-anchor="middle" x="260.0" y="70.0">N</text><rect fill="white" height="40" stroke="black" width="40" x="0" y="0" /><text fill="black" font-family="Dom Casual D" font-size="10" text-anchor="middle" x="20.0" y="25.0">RD</text><rect fill="white" height="40" stroke="black" width="40" x="0" y="40" /><text fill="black" font-family="Dom Casual D" font-size="10" text-anchor="middle" x="20.0" y="65.0">RR</text><rect fill="white" height="40" stroke="black" width="40" x="0" y="80" /><text fill="black" font-family="Dom Casual D" font-size="10" text-anchor="middle" x="20.0" y="105.0">AR</text><rect fill="white" height="40" stroke="black" width="40" x="80" y="0" /><text fill="black" font-family="Dom Casual D" font-size="10" text-anchor="middle" x="100.0" y="25.0">AD</text><rect fill="white" height="40" stroke="black" width="40" x="0" y="240" /><text fill="black" font-family="Dom Casual D" font-size="10" text-anchor="middle" x="20.0" y="265.0">CD</text><rect fill="white" height="40" stroke="black" width="40" x="0" y="280" /><text fill="black" font-family="Dom Casual D" font-size="10" text-anchor="middle" x="20.0" y="305.0">CR</text><rect fill="white" height="40" stroke="black" width="40" x="0" y="120" /><text fill="black" font-family="Dom Casual D" font-size="10" text-anchor="middle" x="20.0" y="145.0">TD</text><rect fill="white" height="40" stroke="black" width="40" x="0" y="160" /><text fill="black" font-family="Dom Casual D" font-size="10" text-anchor="middle" x="20.0" y="185.0">TR</text><rect fill="white" height="40" stroke="black" width="80" x="160" y="280" /><text fill="black" font-family="Dom Casual D" font-size="10" text-anchor="middle" x="200.0" y="305.0">C</text><rect fill="white" height="40" stroke="black" width="40" x="120" y="160" /><text fill="black" font-family="Dom Casual D" font-size="10" text-anchor="middle" x="140.0" y="185.0">UR</text><rect fill="white" height="40" stroke="black" width="40" x="160" y="200" /><text fill="black" font-family="Dom Casual D" font-size="10" text-anchor="middle" x="180.0" y="225.0">DH</text><rect fill="white" height="40" stroke="black" width="40" x="160" y="240" /><text fill="black" font-family="Dom Casual D" font-size="10" text-anchor="middle" x="180.0" y="265.0">DV</text><rect fill="white" height="40" stroke="black" width="40" x="0" y="80" /><rect fill="lightsteelblue" height="40" stroke="black" width="40" x="40" y="80" /><text fill="black" font-family="Dom Casual D" font-size="30" text-anchor="middle" x="60.0" y="110.0">O</text><rect fill="white" height="40" stroke="black" width="40" x="80" y="80" /><text fill="black" font-family="Dom Casual D" font-size="30" text-anchor="middle" x="100.0" y="110.0">J</text><rect fill="white" height="40" stroke="black" width="40" x="120" y="80" /><rect fill="white" height="40" stroke="black" width="40" x="160" y="80" /><rect fill="white" height="40" stroke="black" width="40" x="200" y="80" /><rect fill="white" height="40" stroke="black" width="40" x="240" y="80" /><rect fill="white" height="40" stroke="black" width="40" x="0" y="0" /><text fill="black" font-family="Dom Casual D" font-size="10" text-anchor="middle" x="20.0" y="25.0">RD</text><rect fill="white" height="40" stroke="black" width="40" x="0" y="40" /><text fill="black" font-family="Dom Casual D" font-size="10" text-anchor="middle" x="20.0" y="65.0">RR</text><rect fill="white" height="40" stroke="black" width="40" x="0" y="80" /><text fill="black" font-family="Dom Casual D" font-size="10" text-anchor="middle" x="20.0" y="105.0">AR</text><rect fill="white" height="40" stroke="black" width="40" x="80" y="0" /><text fill="black" font-family="Dom Casual D" font-size="10" text-anchor="middle" x="100.0" y="25.0">AD</text><rect fill="white" height="40" stroke="black" width="40" x="0" y="240" /><text fill="black" font-family="Dom Casual D" font-size="10" text-anchor="middle" x="20.0" y="265.0">CD</text><rect fill="white" height="40" stroke="black" width="40" x="0" y="280" /><text fill="black" font-family="Dom Casual D" font-size="10" text-anchor="middle" x="20.0" y="305.0">CR</text><rect fill="white" height="40" stroke="black" width="40" x="0" y="120" /><text fill="black" font-family="Dom Casual D" font-size="10" text-anchor="middle" x="20.0" y="145.0">TD</text><rect fill="white" height="40" stroke="black" width="40" x="0" y="160" /><text fill="black" font-family="Dom Casual D" font-size="10" text-anchor="middle" x="20.0" y="185.0">TR</text><rect fill="white" height="40" stroke="black" width="80" x="160" y="280" /><text fill="black" font-family="Dom Casual D" font-size="10" text-anchor="middle" x="200.0" y="305.0">C</text><rect fill="white" height="40" stroke="black" width="40" x="120" y="160" /><text fill="black" font-family="Dom Casual D" font-size="10" text-anchor="middle" x="140.0" y="185.0">UR</text><rect fill="white" height="40" stroke="black" width="40" x="160" y="200" /><text fill="black" font-family="Dom Casual D" font-size="10" text-anchor="middle" x="180.0" y="225.0">DH</text><rect fill="white" height="40" stroke="black" width="40" x="160" y="240" /><text fill="black" font-family="Dom Casual D" font-size="10" text-anchor="middle" x="180.0" y="265.0">DV</text><rect fill="white" height="40" stroke="black" width="40" x="0" y="120" /><rect fill="lightsteelblue" height="40" stroke="black" width="40" x="40" y="120" /><text fill="black" font-family="Dom Casual D" font-size="30" text-anchor="middle" x="60.0" y="150.0">P</text><rect fill="white" height="40" stroke="black" width="40" x="80" y="120" /><rect fill="white" height="40" stroke="black" width="40" x="120" y="120" /><rect fill="white" height="40" stroke="black" width="40" x="160" y="120" /><rect fill="white" height="40" stroke="black" width="40" x="200" y="120" /><rect fill="white" height="40" stroke="black" width="40" x="240" y="120" /><rect fill="white" height="40" stroke="black" width="40" x="0" y="0" /><text fill="black" font-family="Dom Casual D" font-size="10" text-anchor="middle" x="20.0" y="25.0">RD</text><rect fill="white" height="40" stroke="black" width="40" x="0" y="40" /><text fill="black" font-family="Dom Casual D" font-size="10" text-anchor="middle" x="20.0" y="65.0">RR</text><rect fill="white" height="40" stroke="black" width="40" x="0" y="80" /><text fill="black" font-family="Dom Casual D" font-size="10" text-anchor="middle" x="20.0" y="105.0">AR</text><rect fill="white" height="40" stroke="black" width="40" x="80" y="0" /><text fill="black" font-family="Dom Casual D" font-size="10" text-anchor="middle" x="100.0" y="25.0">AD</text><rect fill="white" height="40" stroke="black" width="40" x="0" y="240" /><text fill="black" font-family="Dom Casual D" font-size="10" text-anchor="middle" x="20.0" y="265.0">CD</text><rect fill="white" height="40" stroke="black" width="40" x="0" y="280" /><text fill="black" font-family="Dom Casual D" font-size="10" text-anchor="middle" x="20.0" y="305.0">CR</text><rect fill="white" height="40" stroke="black" width="40" x="0" y="120" /><text fill="black" font-family="Dom Casual D" font-size="10" text-anchor="middle" x="20.0" y="145.0">TD</text><rect fill="white" height="40" stroke="black" width="40" x="0" y="160" /><text fill="black" font-family="Dom Casual D" font-size="10" text-anchor="middle" x="20.0" y="185.0">TR</text><rect fill="white" height="40" stroke="black" width="80" x="160" y="280" /><text fill="black" font-family="Dom Casual D" font-size="10" text-anchor="middle" x="200.0" y="305.0">C</text><rect fill="white" height="40" stroke="black" width="40" x="120" y="160" /><text fill="black" font-family="Dom Casual D" font-size="10" text-anchor="middle" x="140.0" y="185.0">UR</text><rect fill="white" height="40" stroke="black" width="40" x="160" y="200" /><text fill="black" font-family="Dom Casual D" font-size="10" text-anchor="middle" x="180.0" y="225.0">DH</text><rect fill="white" height="40" stroke="black" width="40" x="160" y="240" /><text fill="black" font-family="Dom Casual D" font-size="10" text-anchor="middle" x="180.0" y="265.0">DV</text><rect fill="white" height="40" stroke="black" width="40" x="0" y="160" /><rect fill="lightsteelblue" height="40" stroke="black" width="40" x="40" y="160" /><text fill="black" font-family="Dom Casual D" font-size="30" text-anchor="middle" x="60.0" y="190.0">P</text><rect fill="white" height="40" stroke="black" width="40" x="80" y="160" /><rect fill="white" height="40" stroke="black" width="40" x="120" y="160" /><rect fill="white" height="40" stroke="black" width="40" x="160" y="160" /><rect fill="white" height="40" stroke="black" width="40" x="200" y="160" /><rect fill="white" height="40" stroke="black" width="40" x="240" y="160" /><rect fill="white" height="40" stroke="black" width="40" x="0" y="0" /><text fill="black" font-family="Dom Casual D" font-size="10" text-anchor="middle" x="20.0" y="25.0">RD</text><rect fill="white" height="40" stroke="black" width="40" x="0" y="40" /><text fill="black" font-family="Dom Casual D" font-size="10" text-anchor="middle" x="20.0" y="65.0">RR</text><rect fill="white" height="40" stroke="black" width="40" x="0" y="80" /><text fill="black" font-family="Dom Casual D" font-size="10" text-anchor="middle" x="20.0" y="105.0">AR</text><rect fill="white" height="40" stroke="black" width="40" x="80" y="0" /><text fill="black" font-family="Dom Casual D" font-size="10" text-anchor="middle" x="100.0" y="25.0">AD</text><rect fill="white" height="40" stroke="black" width="40" x="0" y="240" /><text fill="black" font-family="Dom Casual D" font-size="10" text-anchor="middle" x="20.0" y="265.0">CD</text><rect fill="white" height="40" stroke="black" width="40" x="0" y="280" /><text fill="black" font-family="Dom Casual D" font-size="10" text-anchor="middle" x="20.0" y="305.0">CR</text><rect fill="white" height="40" stroke="black" width="40" x="0" y="120" /><text fill="black" font-family="Dom Casual D" font-size="10" text-anchor="middle" x="20.0" y="145.0">TD</text><rect fill="white" height="40" stroke="black" width="40" x="0" y="160" /><text fill="black" font-family="Dom Casual D" font-size="10" text-anchor="middle" x="20.0" y="185.0">TR</text><rect fill="white" height="40" stroke="black" width="80" x="160" y="280" /><text fill="black" font-family="Dom Casual D" font-size="10" text-anchor="middle" x="200.0" y="305.0">C</text><rect fill="white" height="40" stroke="black" width="40" x="120" y="160" /><text fill="black" font-family="Dom Casual D" font-size="10" text-anchor="middle" x="140.0" y="185.0">UR</text><rect fill="white" height="40" stroke="black" width="40" x="160" y="200" /><text fill="black" font-family="Dom Casual D" font-size="10" text-anchor="middle" x="180.0" y="225.0">DH</text><rect fill="white" height="40" stroke="black" width="40" x="160" y="240" /><text fill="black" font-family="Dom Casual D" font-size="10" text-anchor="middle" x="180.0" y="265.0">DV</text><rect fill="white" height="40" stroke="black" width="40" x="0" y="200" /><rect fill="lightsteelblue" height="40" stroke="black" width="40" x="40" y="200" /><text fill="black" font-family="Dom Casual D" font-size="30" text-anchor="middle" x="60.0" y="230.0">S</text><rect fill="white" height="40" stroke="black" width="40" x="80" y="200" /><rect fill="white" height="40" stroke="black" width="40" x="120" y="200" /><rect fill="white" height="40" stroke="black" width="40" x="160" y="200" /><rect fill="white" height="40" stroke="black" width="40" x="200" y="200" /><rect fill="white" height="40" stroke="black" width="40" x="240" y="200" /><rect fill="white" height="40" stroke="black" width="40" x="0" y="0" /><text fill="black" font-family="Dom Casual D" font-size="10" text-anchor="middle" x="20.0" y="25.0">RD</text><rect fill="white" height="40" stroke="black" width="40" x="0" y="40" /><text fill="black" font-family="Dom Casual D" font-size="10" text-anchor="middle" x="20.0" y="65.0">RR</text><rect fill="white" height="40" stroke="black" width="40" x="0" y="80" /><text fill="black" font-family="Dom Casual D" font-size="10" text-anchor="middle" x="20.0" y="105.0">AR</text><rect fill="white" height="40" stroke="black" width="40" x="80" y="0" /><text fill="black" font-family="Dom Casual D" font-size="10" text-anchor="middle" x="100.0" y="25.0">AD</text><rect fill="white" height="40" stroke="black" width="40" x="0" y="240" /><text fill="black" font-family="Dom Casual D" font-size="10" text-anchor="middle" x="20.0" y="265.0">CD</text><rect fill="white" height="40" stroke="black" width="40" x="0" y="280" /><text fill="black" font-family="Dom Casual D" font-size="10" text-anchor="middle" x="20.0" y="305.0">CR</text><rect fill="white" height="40" stroke="black" width="40" x="0" y="120" /><text fill="black" font-family="Dom Casual D" font-size="10" text-anchor="middle" x="20.0" y="145.0">TD</text><rect fill="white" height="40" stroke="black" width="40" x="0" y="160" /><text fill="black" font-family="Dom Casual D" font-size="10" text-anchor="middle" x="20.0" y="185.0">TR</text><rect fill="white" height="40" stroke="black" width="80" x="160" y="280" /><text fill="black" font-family="Dom Casual D" font-size="10" text-anchor="middle" x="200.0" y="305.0">C</text><rect fill="white" height="40" stroke="black" width="40" x="120" y="160" /><text fill="black" font-family="Dom Casual D" font-size="10" text-anchor="middle" x="140.0" y="185.0">UR</text><rect fill="white" height="40" stroke="black" width="40" x="160" y="200" /><text fill="black" font-family="Dom Casual D" font-size="10" text-anchor="middle" x="180.0" y="225.0">DH</text><rect fill="white" height="40" stroke="black" width="40" x="160" y="240" /><text fill="black" font-family="Dom Casual D" font-size="10" text-anchor="middle" x="180.0" y="265.0">DV</text><rect fill="white" height="40" stroke="black" width="40" x="0" y="240" /><rect fill="lightsteelblue" height="40" stroke="black" width="40" x="40" y="240" /><text fill="black" font-family="Dom Casual D" font-size="30" text-anchor="middle" x="60.0" y="270.0">A</text><rect fill="white" height="40" stroke="black" width="40" x="80" y="240" /><rect fill="white" height="40" stroke="black" width="40" x="120" y="240" /><rect fill="white" height="40" stroke="black" width="40" x="160" y="240" /><rect fill="white" height="40" stroke="black" width="40" x="200" y="240" /><rect fill="white" height="40" stroke="black" width="40" x="240" y="240" /><rect fill="white" height="40" stroke="black" width="40" x="0" y="0" /><text fill="black" font-family="Dom Casual D" font-size="10" text-anchor="middle" x="20.0" y="25.0">RD</text><rect fill="white" height="40" stroke="black" width="40" x="0" y="40" /><text fill="black" font-family="Dom Casual D" font-size="10" text-anchor="middle" x="20.0" y="65.0">RR</text><rect fill="white" height="40" stroke="black" width="40" x="0" y="80" /><text fill="black" font-family="Dom Casual D" font-size="10" text-anchor="middle" x="20.0" y="105.0">AR</text><rect fill="white" height="40" stroke="black" width="40" x="80" y="0" /><text fill="black" font-family="Dom Casual D" font-size="10" text-anchor="middle" x="100.0" y="25.0">AD</text><rect fill="white" height="40" stroke="black" width="40" x="0" y="240" /><text fill="black" font-family="Dom Casual D" font-size="10" text-anchor="middle" x="20.0" y="265.0">CD</text><rect fill="white" height="40" stroke="black" width="40" x="0" y="280" /><text fill="black" font-family="Dom Casual D" font-size="10" text-anchor="middle" x="20.0" y="305.0">CR</text><rect fill="white" height="40" stroke="black" width="40" x="0" y="120" /><text fill="black" font-family="Dom Casual D" font-size="10" text-anchor="middle" x="20.0" y="145.0">TD</text><rect fill="white" height="40" stroke="black" width="40" x="0" y="160" /><text fill="black" font-family="Dom Casual D" font-size="10" text-anchor="middle" x="20.0" y="185.0">TR</text><rect fill="white" height="40" stroke="black" width="80" x="160" y="280" /><text fill="black" font-family="Dom Casual D" font-size="10" text-anchor="middle" x="200.0" y="305.0">C</text><rect fill="white" height="40" stroke="black" width="40" x="120" y="160" /><text fill="black" font-family="Dom Casual D" font-size="10" text-anchor="middle" x="140.0" y="185.0">UR</text><rect fill="white" height="40" stroke="black" width="40" x="160" y="200" /><text fill="black" font-family="Dom Casual D" font-size="10" text-anchor="middle" x="180.0" y="225.0">DH</text><rect fill="white" height="40" stroke="black" width="40" x="160" y="240" /><text fill="black" font-family="Dom Casual D" font-size="10" text-anchor="middle" x="180.0" y="265.0">DV</text><rect fill="white" height="40" stroke="black" width="40" x="0" y="280" /><rect fill="lightsteelblue" height="40" stroke="black" width="40" x="40" y="280" /><text fill="black" font-family="Dom Casual D" font-size="30" text-anchor="middle" x="60.0" y="310.0">N</text><rect fill="white" height="40" stroke="black" width="40" x="80" y="280" /><rect fill="white" height="40" stroke="black" width="40" x="120" y="280" /><rect fill="white" height="40" stroke="black" width="40" x="160" y="280" /><rect fill="white" height="40" stroke="black" width="40" x="240" y="280" /><rect fill="white" height="40" stroke="black" width="40" x="0" y="0" /><text fill="black" font-family="Dom Casual D" font-size="10" text-anchor="middle" x="20.0" y="25.0">RD</text><rect fill="white" height="40" stroke="black" width="40" x="0" y="40" /><text fill="black" font-family="Dom Casual D" font-size="10" text-anchor="middle" x="20.0" y="65.0">RR</text><rect fill="white" height="40" stroke="black" width="40" x="0" y="80" /><text fill="black" font-family="Dom Casual D" font-size="10" text-anchor="middle" x="20.0" y="105.0">AR</text><rect fill="white" height="40" stroke="black" width="40" x="80" y="0" /><text fill="black" font-family="Dom Casual D" font-size="10" text-anchor="middle" x="100.0" y="25.0">AD</text><rect fill="white" height="40" stroke="black" width="40" x="0" y="240" /><text fill="black" font-family="Dom Casual D" font-size="10" text-anchor="middle" x="20.0" y="265.0">CD</text><rect fill="white" height="40" stroke="black" width="40" x="0" y="280" /><text fill="black" font-family="Dom Casual D" font-size="10" text-anchor="middle" x="20.0" y="305.0">CR</text><rect fill="white" height="40" stroke="black" width="40" x="0" y="120" /><text fill="black" font-family="Dom Casual D" font-size="10" text-anchor="middle" x="20.0" y="145.0">TD</text><rect fill="white" height="40" stroke="black" width="40" x="0" y="160" /><text fill="black" font-family="Dom Casual D" font-size="10" text-anchor="middle" x="20.0" y="185.0">TR</text><rect fill="white" height="40" stroke="black" width="80" x="160" y="280" /><text fill="black" font-family="Dom Casual D" font-size="10" text-anchor="middle" x="200.0" y="305.0">C</text><rect fill="white" height="40" stroke="black" width="40" x="120" y="160" /><text fill="black" font-family="Dom Casual D" font-size="10" text-anchor="middle" x="140.0" y="185.0">UR</text><rect fill="white" height="40" stroke="black" width="40" x="160" y="200" /><text fill="black" font-family="Dom Casual D" font-size="10" text-anchor="middle" x="180.0" y="225.0">DH</text><rect fill="white" height="40" stroke="black" width="40" x="160" y="240" /><text fill="black" font-family="Dom Casual D" font-size="10" text-anchor="middle" x="180.0" y="265.0">DV</text><line stroke="black" x1="37" x2="44" y1="37" y2="44" /><line stroke="black" x1="43.8" x2="43.8" y1="43.5" y2="49.0" /><polygon fill="black" points="43.8,52 41.3,47.0 46.3,47.0" /><line stroke="black" x1="37" x2="44" y1="77" y2="84" /><line stroke="black" x1="43.8" x2="49.0" y1="84" y2="84.0" /><polygon fill="black" points="52,84 47.0,86.5 47.0,81.5" /><line stroke="black" x1="37" x2="44.0" y1="100" y2="100.0" /><polygon fill="black" points="47,100 42.0,102.5 42.0,97.5" /><line stroke="black" x1="100" x2="100.0" y1="37" y2="44.0" /><polygon fill="black" points="100,47 97.5,42.0 102.5,42.0" /><line stroke="black" x1="30" x2="35" y1="243" y2="243" /><line stroke="black" x1="35" x2="35.0" y1="242.5" y2="248.0" /><polygon fill="black" points="35,251 32.5,246.0 37.5,246.0" /><line stroke="black" x1="5" x2="5" y1="308" y2="315" /><line stroke="black" x1="5" x2="10.0" y1="314.5" y2="314.5" /><polygon fill="black" points="13,314.5 8.0,317.0 8.0,312.0" /><polygon fill="white" points="15,120 25,120 20,125" stroke="black" stroke-width="1" /><polygon fill="white" points="0,175 0,185 5,180" stroke="black" stroke-width="1" /><line stroke="black" x1="123" x2="123" y1="167" y2="155" /><line stroke="black" x1="122.5" x2="127.0" y1="155" y2="155.0" /><polygon fill="black" points="130,155 125.0,157.5 125.0,152.5" /><rect fill="black" height="40" width="40" x="240" y="280" /><text fill="white" font-family="Arial" font-size="10" text-anchor="middle" x="260.0" y="293.0">© Mikael</text><text fill="white" font-family="Arial" font-size="10" text-anchor="middle" x="260.0" y="303.0">Ivarsson</text><text fill="white" font-family="Arial" font-size="10" text-anchor="middle" x="260.0" y="313.0">2024</text><line stroke="black" x1="200" x2="240" y1="220.0" y2="220.0" /><line stroke="black" x1="220.0" x2="220.0" y1="240" y2="280" /></svg>